<?xml version="1.0" standalone="no"?>
<!DOCTYPE svg PUBLIC "-//W3C//DTD SVG 20010904//EN"
 "http://www.w3.org/TR/2001/REC-SVG-20010904/DTD/svg10.dtd">
<svg version="1.0" xmlns="http://www.w3.org/2000/svg"
 width="120.000000pt" height="120.000000pt" viewBox="0 0 120.000000 120.000000"
 preserveAspectRatio="xMidYMid meet">

<g transform="translate(0.000000,120.000000) scale(0.100000,-0.100000)"
fill="#000000" stroke="none">
<path d="M271 1058 c-74 -28 -142 -97 -171 -174 -41 -110 -14 -227 91 -384 59
-89 220 -260 313 -336 70 -55 122 -55 192 0 160 130 344 354 395 483 34 87 33
190 -4 265 -81 164 -285 217 -438 112 l-49 -35 -47 32 c-88 61 -186 74 -282
37z m171 -68 c20 -6 62 -33 91 -60 30 -28 60 -50 67 -50 7 0 35 21 62 46 54
51 102 74 150 74 63 0 112 -21 159 -69 112 -111 84 -254 -90 -463 -98 -116
-258 -268 -284 -268 -24 0 -258 233 -322 320 -132 181 -148 305 -52 407 62 65
135 86 219 63z"/>
</g>
</svg>
