<?xml version="1.0" standalone="no"?>
<!DOCTYPE svg PUBLIC "-//W3C//DTD SVG 20010904//EN"
 "http://www.w3.org/TR/2001/REC-SVG-20010904/DTD/svg10.dtd">
<svg version="1.0" xmlns="http://www.w3.org/2000/svg"
 width="10000.000000pt" height="6587.000000pt" viewBox="0 0 10000.000000 6587.000000"
 preserveAspectRatio="xMidYMid meet">

<g transform="translate(0.000000,6587.000000) scale(0.100000,-0.100000)"
fill="#000000" stroke="none">
<path d="M46730 65864 c-433 -41 -911 -159 -1665 -413 -351 -119 -678 -238
-1520 -553 -800 -300 -1050 -392 -1390 -511 -765 -268 -1319 -428 -1860 -536
-233 -47 -319 -73 -470 -146 -364 -175 -752 -529 -1020 -930 -41 -60 -94 -148
-119 -195 -24 -47 -194 -429 -376 -850 -3076 -7092 -5968 -14106 -8727 -21160
-173 -443 -316 -806 -318 -808 -1 -2 -171 -32 -376 -68 -3706 -641 -7510
-1395 -11314 -2243 -220 -49 -401 -88 -402 -87 -3 3 1164 2986 1990 5086 2159
5487 4645 11716 7167 17960 357 883 674 1676 704 1763 99 279 176 578 217 842
30 196 37 571 15 742 -87 661 -449 1087 -1041 1224 -115 26 -417 37 -550 20
-616 -81 -1215 -407 -1765 -960 -373 -375 -679 -804 -943 -1322 -122 -239
-163 -337 -745 -1764 -3731 -9152 -6674 -16524 -9468 -23722 l-389 -1001 -885
-221 c-2980 -743 -5660 -1459 -8570 -2291 -1064 -304 -1290 -375 -1677 -531
-1014 -408 -1361 -843 -1188 -1487 65 -241 219 -544 464 -907 228 -341 370
-495 591 -644 226 -152 443 -249 970 -431 640 -222 834 -322 1060 -549 191
-191 394 -424 935 -1071 624 -746 860 -1007 1214 -1337 821 -767 1679 -1182
2766 -1338 99 -15 181 -28 183 -29 1 -2 -133 -367 -299 -812 -2481 -6659
-4628 -12638 -6461 -17994 -294 -861 -350 -1048 -412 -1390 -53 -292 -61 -386
-61 -715 0 -341 9 -428 66 -665 162 -661 592 -1093 1184 -1187 136 -21 388
-14 539 17 832 166 1627 908 2181 2035 163 331 215 465 533 1365 1614 4566
3408 9503 5297 14575 650 1744 2018 5381 2028 5391 21 21 3069 695 7347 1623
4038 877 4920 1067 4920 1061 0 -4 -106 -299 -236 -656 -3254 -8962 -5888
-17017 -7004 -21419 -142 -557 -144 -572 -144 -820 0 -221 14 -316 76 -505 36
-108 202 -443 274 -551 158 -239 438 -585 686 -849 288 -306 576 -562 1213
-1075 1011 -814 1499 -1306 2140 -2160 273 -364 370 -454 620 -575 198 -95
170 -91 665 -88 l435 3 125 62 c221 109 391 261 536 478 146 220 151 234 709
1903 2447 7327 4965 14470 7903 22417 782 2116 2278 6115 2293 6130 3 2 97 25
210 51 902 204 1571 414 2224 697 1139 495 2069 1188 2774 2067 134 167 226
295 441 610 930 1367 1732 2319 2484 2947 209 176 404 319 750 552 389 262
491 344 639 510 213 238 453 719 552 1104 52 205 69 336 69 537 0 302 -65 536
-206 750 -269 409 -755 653 -1468 736 -307 35 -811 29 -1235 -16 -99 -10 -214
-21 -255 -24 -598 -46 -1794 -164 -2704 -266 -197 -23 -359 -40 -361 -38 -1 2
56 152 127 333 71 182 278 713 460 1180 549 1412 1835 4694 2933 7490 1703
4336 2282 5814 2917 7445 907 2330 1813 4695 1941 5065 222 642 333 1104 378
1570 15 155 6 500 -16 618 -35 194 -99 360 -189 495 -49 75 -165 194 -239 246
-117 83 -294 156 -462 191 -78 16 -322 27 -415 19z"/>
<path d="M98190 65713 c-977 -74 -2335 -500 -4245 -1335 -584 -255 -705 -296
-1432 -477 -641 -160 -967 -282 -1325 -498 -813 -488 -1562 -1444 -2337 -2983
-560 -1112 -3200 -6588 -4501 -9335 -4950 -10455 -8706 -19172 -12715 -29510
-119 -308 -221 -569 -226 -580 -24 -51 16 1722 66 2965 174 4332 568 8592
1311 14195 219 1655 347 2571 924 6620 774 5431 1093 7870 1445 11040 311
2800 442 4248 515 5690 56 1101 61 2152 11 2435 -104 594 -432 954 -995 1091
-586 142 -1406 34 -2461 -325 -575 -195 -1131 -428 -1875 -786 -631 -303 -751
-348 -2300 -855 -594 -195 -931 -326 -1285 -500 -825 -406 -1366 -921 -1730
-1645 -95 -191 -126 -264 -300 -720 -2950 -7725 -8557 -24844 -12920 -39450
-1604 -5370 -2952 -10093 -3989 -13980 -297 -1117 -321 -1215 -367 -1565 -20
-146 -23 -216 -23 -490 -1 -345 7 -434 60 -675 164 -741 639 -1240 1271 -1335
409 -62 864 57 1276 332 461 308 851 785 1157 1416 192 397 239 534 590 1737
810 2775 1905 6471 2912 9825 3700 12335 6946 22692 9148 29190 331 974 600
1756 611 1775 6 10 8 4 5 -20 -3 -19 -8 -114 -11 -210 -31 -951 -160 -2964
-290 -4525 -167 -1995 -279 -3188 -675 -7165 -508 -5102 -678 -6937 -850
-9200 -234 -3081 -334 -5342 -334 -7550 0 -1528 39 -2572 139 -3730 57 -653
158 -1473 221 -1789 85 -427 207 -781 405 -1181 165 -330 328 -591 575 -920
273 -363 571 -701 1144 -1300 717 -750 906 -956 1188 -1300 278 -338 484 -632
707 -1006 225 -376 354 -552 546 -745 325 -324 665 -489 1012 -489 319 0 590
124 863 395 190 188 339 402 494 710 103 203 149 317 359 886 1634 4440 3845
10086 6111 15609 3933 9585 7914 18566 11468 25873 67 136 123 247 125 247 2
0 -14 -80 -35 -177 -459 -2113 -1467 -7105 -2432 -12048 -2342 -11991 -4266
-22620 -5210 -28780 -203 -1322 -363 -2442 -375 -2630 -31 -457 85 -845 361
-1207 212 -279 499 -535 1082 -968 1246 -926 1520 -1152 2096 -1729 411 -412
663 -702 1005 -1156 175 -233 288 -356 420 -456 217 -166 511 -317 782 -400
58 -18 93 -19 535 -17 l473 3 95 46 c278 135 477 377 598 731 51 145 55 168
222 1028 664 3419 1985 10138 2996 15235 3931 19821 6954 34458 8714 42189
205 901 309 1350 590 2535 191 807 277 1252 329 1707 61 519 51 961 -28 1272
-152 592 -538 901 -1206 962 -102 9 -380 11 -485 3z"/>
<path d="M41395 28304 c-667 -67 -1174 -239 -1670 -569 -206 -136 -330 -239
-521 -429 -523 -523 -893 -1169 -1049 -1831 -59 -252 -84 -457 -92 -760 -19
-750 107 -1348 688 -3272 60 -199 109 -368 109 -376 0 -8 -82 -99 -182 -204
-792 -822 -1588 -1700 -2379 -2618 -502 -584 -823 -1059 -1119 -1655 -366
-740 -576 -1462 -652 -2250 -17 -180 -17 -803 0 -970 63 -610 203 -1115 443
-1600 198 -401 421 -714 723 -1015 578 -576 1308 -926 2176 -1042 170 -23 743
-26 910 -5 1076 136 2109 646 3198 1580 74 63 137 110 141 106 5 -5 25 -54 46
-109 74 -195 194 -492 233 -575 155 -335 404 -627 684 -803 360 -226 789 -263
1122 -96 387 194 594 612 573 1154 -12 301 -74 561 -229 965 -96 249 -286 767
-423 1152 l-126 357 149 193 c469 608 1085 1481 1312 1859 116 193 268 498
343 689 158 397 226 743 214 1084 -12 367 -115 640 -321 855 -197 205 -439
301 -755 301 -278 0 -535 -70 -829 -225 -282 -149 -497 -319 -990 -781 -123
-115 -252 -235 -287 -267 l-64 -58 -110 338 c-182 559 -389 1205 -581 1813
-99 316 -183 580 -185 586 -1 6 56 82 127 170 961 1176 1654 2102 2165 2892
469 727 718 1351 809 2027 27 201 25 612 -4 805 -96 628 -362 1153 -806 1595
-533 531 -1228 858 -2061 971 -105 15 -635 27 -730 18z m275 -2565 c257 -71
450 -277 506 -538 31 -147 10 -369 -52 -543 -60 -168 -209 -426 -336 -581
-164 -200 -874 -974 -885 -964 -2 2 -46 160 -98 350 -154 566 -189 776 -188
1117 0 175 4 237 22 334 34 192 97 356 189 495 49 74 163 188 235 235 178 116
403 152 607 95z m-1294 -9384 c207 -622 377 -1135 378 -1142 2 -23 -487 -403
-739 -574 -440 -300 -702 -410 -980 -412 -185 -2 -301 40 -405 149 -65 67 -99
130 -127 234 -25 95 -23 302 6 439 76 363 278 785 605 1266 189 277 870 1184
881 1173 2 -2 173 -512 381 -1133z"/>
</g>
</svg>
